<?xml version="1.0" standalone="no"?>
<!DOCTYPE svg PUBLIC "-//W3C//DTD SVG 20010904//EN"
 "http://www.w3.org/TR/2001/REC-SVG-20010904/DTD/svg10.dtd">
<svg version="1.0" xmlns="http://www.w3.org/2000/svg"
 width="512.000000pt" height="512.000000pt" viewBox="0 0 512.000000 512.000000"
 preserveAspectRatio="xMidYMid meet">
<metadata>
Created by potrace 1.11, written by Peter Selinger 2001-2013
</metadata>
<g transform="translate(0.000000,512.000000) scale(0.100000,-0.100000)"
fill="#000000" stroke="none">
<path d="M510 5113 c-202 -34 -401 -205 -475 -408 -34 -93 -34 -104 -34 -2145
0 -2229 -5 -2069 67 -2220 51 -105 168 -222 273 -273 145 -71 -3 -67 2230 -67
2242 0 2063 -5 2214 70 160 80 279 230 320 402 22 94 22 4095 0 4181 -45 172
-165 322 -319 397 -151 74 30 69 -2221 68 -1117 0 -2041 -3 -2055 -5z"/>
</g>
</svg>
